<svg width="145" height="38" viewBox="0 0 145 38" fill="none" xmlns="http://www.w3.org/2000/svg">
  <g clip-path="url(#clip0_19622_2802)">
    <path d="M34.2045 0H0V38H38V0H34.2045ZM34.2045 34.2068H3.79548V3.79323H34.2045V34.2068Z" fill="#CF4646"></path>
    <path d="M26.6144 11.4023H22.7963H22.3219H21.5086H15.2054H11.4099H7.5918V15.1956H11.4099V26.5978H15.2054V15.1956H19.2945H20.1304H22.7963V26.5978H26.6144V15.1956H30.4099V11.4023H26.6144Z" fill="#CF4646"></path>
  </g>
  <g clip-path="url(#clip1_19622_2802)">
    <path d="M54.8272 17.3412H57.5681V7.8279H61.3952V5.29102H51V7.8279H54.8272V17.3412Z" fill="white"></path>
    <path d="M70.253 17.5123C71.2224 17.5123 71.8742 17.1524 72.3254 16.7238H72.409L72.4034 17.3409H74.966V8.6675H72.409V9.28458H72.3254C71.8742 8.85606 71.2224 8.49609 70.253 8.49609C67.9968 8.49609 65.9746 10.433 65.9746 13.0042C65.9746 15.5754 67.9968 17.5123 70.253 17.5123V17.5123ZM70.5873 10.9473C71.3394 10.9473 71.9577 11.2558 72.3254 11.77V14.2384C71.9577 14.7526 71.3394 15.0611 70.5873 15.0611C69.4007 15.0611 68.6319 14.1698 68.6319 13.0042C68.6319 11.8386 69.4007 10.9473 70.5873 10.9473V10.9473Z" fill="white"></path>
    <path d="M66.0633 24.7729H65.9797C65.5285 24.3443 64.8767 23.9844 63.9073 23.9844C61.6511 23.9844 59.6289 25.9213 59.6289 28.4925C59.6289 31.0637 61.6511 33.0006 63.9073 33.0006C64.8767 33.0006 65.5285 32.6406 65.9797 32.2121H66.0633L66.0577 32.8292H68.6203V24.1558H66.0633V24.7729V24.7729ZM65.9797 29.7266C65.612 30.2409 64.9937 30.5494 64.2416 30.5494C63.055 30.5494 62.2862 29.6581 62.2862 28.4925C62.2862 27.3269 63.055 26.4356 64.2416 26.4356C64.9937 26.4356 65.612 26.7441 65.9797 27.2583V29.7266V29.7266Z" fill="white"></path>
    <path d="M81.5683 12.2843V17.3409H84.2089V12.0786C84.2089 10.0045 82.8719 8.49609 80.8831 8.49609C79.9472 8.49609 79.2453 8.80463 78.7439 9.31887H78.6937L78.7021 8.6675H76.1367V17.3409H78.7773V11.9243C79.0781 11.273 79.6129 10.9301 80.2814 10.9301C81.0335 10.9301 81.5683 11.4786 81.5683 12.2843Z" fill="white"></path>
    <path d="M88.269 15.3697C87.5169 15.3697 86.464 14.9069 85.8791 14.3241L84.8262 16.3981C85.7119 17.1181 86.8985 17.5123 88.1854 17.5123C90.4249 17.5123 91.7953 16.4153 91.7953 14.6326C91.7953 13.227 90.8928 12.3014 89.255 11.9586C88.0851 11.7186 87.7342 11.5472 87.7342 11.1701C87.7342 10.8444 88.0183 10.6559 88.5531 10.6559C89.2717 10.6559 89.9068 10.913 90.5085 11.4615L91.5279 9.40457C90.7424 8.80463 89.7731 8.49609 88.6701 8.49609C86.5141 8.49609 85.1604 9.57598 85.1604 11.2901C85.1604 12.5928 86.1465 13.5699 87.918 14.0155C88.9375 14.2726 89.2216 14.4441 89.2216 14.804C89.2216 15.164 88.904 15.3697 88.269 15.3697V15.3697Z" fill="white"></path>
    <path d="M96.4247 8.49679C96.4247 7.74258 96.9595 7.36547 97.6113 7.36547C98.1795 7.36547 98.4636 7.51974 98.848 7.89685L99.8842 5.8742C99.082 5.27426 98.3634 5 97.2436 5C95.2548 5 93.7841 6.26844 93.7841 8.4625V8.6682H92.1797V10.948H93.7841V17.3416H96.4247V10.948H98.9149V8.6682H96.4247V8.49679Z" fill="white"></path>
    <path d="M103.51 8.49609C100.936 8.49609 98.9141 10.3645 98.9141 13.0042C98.9141 15.6439 100.936 17.5123 103.51 17.5123C106.084 17.5123 108.139 15.6611 108.139 13.0042C108.139 10.3473 106.117 8.49609 103.51 8.49609V8.49609ZM103.51 15.0611C102.474 15.0611 101.571 14.2898 101.571 13.0042C101.571 11.7186 102.474 10.9473 103.51 10.9473C104.546 10.9473 105.482 11.7186 105.482 13.0042C105.482 14.2898 104.58 15.0611 103.51 15.0611Z" fill="white"></path>
    <path d="M125.42 8.49609C124.117 8.49609 123.281 9.07889 122.763 10.0045C122.195 9.07889 121.225 8.49609 119.989 8.49609C119.053 8.49609 118.351 8.80463 117.849 9.31887H117.799V8.6675H115.242V17.3409H117.866L117.883 11.9243C118.184 11.273 118.718 10.9301 119.387 10.9301C120.139 10.9301 120.674 11.4786 120.674 12.2843V17.3409H123.314V11.9243C123.615 11.273 124.15 10.9301 124.819 10.9301C125.571 10.9301 126.105 11.4786 126.105 12.2843V17.3409H128.746V12.0786C128.746 10.0045 127.409 8.49609 125.42 8.49609V8.49609Z" fill="white"></path>
    <path d="M134.012 8.49609C131.505 8.49609 129.566 10.4673 129.566 13.0042C129.566 15.5411 131.538 17.5123 134.38 17.5123C135.75 17.5123 137.004 17.0838 137.806 16.3124L136.736 14.2212C136.235 14.7869 135.466 15.1468 134.463 15.1468C133.46 15.1468 132.575 14.6326 132.224 13.7413H138.257C138.274 13.5184 138.29 13.1413 138.29 12.9356C138.29 10.3473 136.502 8.49609 134.012 8.49609V8.49609ZM132.24 11.8558C132.525 11.0158 133.193 10.5702 134.112 10.5702C134.948 10.5702 135.6 11.0844 135.767 11.8558H132.24Z" fill="white"></path>
    <path d="M61.3952 20.7188H51V23.2556H54.8272V32.7689H57.5681V23.2556H61.3952V20.7188Z" fill="white"></path>
    <path d="M74.4306 23.9232C73.4112 23.9232 72.7092 24.3003 72.2246 24.746V20.5293H69.584V32.768H72.1717L72.141 32.1167H72.2246C72.7092 32.5624 73.4112 32.9395 74.4306 32.9395C76.7537 32.9395 78.5754 30.9682 78.5754 28.4313C78.5754 25.8945 76.7537 23.9232 74.4306 23.9232V23.9232ZM73.9627 30.4883C73.1772 30.4883 72.5755 30.1626 72.2246 29.5455V27.3172C72.5755 26.7001 73.1772 26.3744 73.9627 26.3744C75.1159 26.3744 75.9181 27.2315 75.9181 28.4313C75.9181 29.6312 75.1159 30.4883 73.9627 30.4883V30.4883Z" fill="white"></path>
    <path d="M82.3027 20.5293H79.6621V32.768H82.3027V20.5293Z" fill="white"></path>
    <path d="M87.6506 23.9238C85.1437 23.9238 83.2051 25.8951 83.2051 28.4319C83.2051 30.9688 85.1772 32.9401 88.0183 32.9401C89.3887 32.9401 90.6422 32.5115 91.4444 31.7402L90.3748 29.649C89.8734 30.2146 89.1046 30.5746 88.1019 30.5746C87.0991 30.5746 86.2133 30.0603 85.8624 29.169H91.8956C91.9123 28.9462 91.9291 28.5691 91.9291 28.3634C91.9291 25.7751 90.1408 23.9238 87.6506 23.9238V23.9238ZM85.8791 27.2835C86.1632 26.4436 86.8317 25.9979 87.7509 25.9979C88.5865 25.9979 89.2383 26.5121 89.4055 27.2835H85.8791V27.2835Z" fill="white"></path>
    <path d="M113.057 9.11364C112.499 9.11364 112.004 9.23077 111.575 9.44503V8.66797H108.926V17.3414H111.55L111.564 13.2161C111.564 12.3704 112.235 11.6848 113.057 11.6848C113.204 11.6848 113.346 11.7077 113.486 11.7477C113.547 11.7677 113.608 11.7905 113.667 11.8162L114.683 9.46503C114.527 9.39361 114.369 9.33361 114.207 9.28505C113.836 9.17077 113.449 9.11364 113.059 9.11364H113.057Z" fill="white"></path>
    <path d="M60.5957 8.66797V17.3414H63.2196L63.2335 13.2161C63.2335 12.3704 63.9048 11.6848 64.7265 11.6848C64.8741 11.6848 65.0162 11.7077 65.1555 11.7477C65.2167 11.7677 65.278 11.7905 65.3365 11.8162L66.3532 9.46503C66.1972 9.39361 66.0384 9.33361 65.8769 9.28505C65.5064 9.17077 65.1192 9.11364 64.7293 9.11364C64.1722 9.11364 63.6764 9.23077 63.2474 9.44503V8.66797H60.5985H60.5957Z" fill="white"></path>
    <path d="M144.524 9.28505C144.154 9.17077 143.767 9.11364 143.377 9.11364C142.82 9.11364 142.324 9.23077 141.895 9.44503V8.66797H139.246V17.3414H141.87L141.884 13.2161C141.884 12.3704 142.555 11.6848 143.377 11.6848C143.525 11.6848 143.667 11.7077 143.806 11.7477C143.867 11.7677 143.928 11.7905 143.987 11.8162L145.004 9.46503C144.848 9.39361 144.689 9.33361 144.527 9.28505H144.524Z" fill="white"></path>
  </g>
  <defs>
    <clipPath id="clip0_19622_2802">
      <rect width="38" height="38" fill="white"></rect>
    </clipPath>
    <clipPath id="clip1_19622_2802">
      <rect width="94" height="28" fill="white" transform="translate(51 5)"></rect>
    </clipPath>
  </defs>
</svg> 